<svg version="1.1" preserveAspectRatio="none" xmlns="http://www.w3.org/2000/svg" width="500" height="500" viewBox="0 0 500 500"><rect width="100%" height="100%" fill="#121B31" fill-opacity="1"/><svg viewBox="575 249.6666 380 219.7164" width="417" height="241.10983894736842" x="41.5px" y="129.4451px" xmlns="http://www.w3.org/2000/svg" xmlns:xlink="http://www.w3.org/1999/xlink" preserveAspectRatio="none"><defs/><style>.companyName38598948-c81f-440b-a1d3-3e25554c15fd {fill:#F7F7F7;fill-opacity:1;}.icon3-str38598948-c81f-440b-a1d3-3e25554c15fd {stroke:#D0E156;stroke-opacity:1;}</style><g opacity="1" transform="rotate(0 575 249.6666)">
<svg width="380" height="219.7164" x="575" y="249.6666" version="1.1" preserveAspectRatio="none" viewBox="1.8 -26.8 192.32 111.2">
  <g transform="matrix(1 0 0 1 0 0)" class="companyName38598948-c81f-440b-a1d3-3e25554c15fd"><path id="id-38598948-c81f-440b-a1d3-3e25554c15fdD6z1nYkh22" d="M12.32-26.80Q19.76-26.80 22.28-20.96L22.28-20.96L20.56-19.56Q19.56-22.40 17.58-23.68Q15.60-24.96 12.36-24.96L12.36-24.96Q10.04-24.96 8.32-24.24Q6.60-23.52 5.70-22.28Q4.80-21.04 4.80-19.48L4.80-19.48Q4.80-17.96 5.56-16.96Q6.32-15.96 8.14-15.26Q9.96-14.56 13.16-14L13.16-14Q18.32-13.12 20.48-11.44Q22.64-9.76 22.64-6.80L22.64-6.80Q22.64-4.68 21.40-3.04Q20.16-1.40 17.90-0.50Q15.64 0.40 12.72 0.40L12.72 0.40Q8.56 0.40 5.70-1.26Q2.84-2.92 1.80-5.92L1.80-5.92L3.56-7.28Q4.36-4.44 6.78-2.94Q9.20-1.44 12.76-1.44L12.76-1.44Q16.20-1.44 18.38-2.84Q20.56-4.24 20.56-6.68L20.56-6.68Q20.56-8.80 18.78-10.04Q17-11.28 12.60-12.04L12.60-12.04Q8.88-12.68 6.72-13.60Q4.56-14.52 3.62-15.88Q2.68-17.24 2.68-19.28L2.68-19.28Q2.68-21.32 3.86-23.04Q5.04-24.76 7.22-25.78Q9.40-26.80 12.32-26.80L12.32-26.80Z M30.92-1.84L47.60-1.84L47.60 0L28.92 0L28.92-26.40L46.96-26.40L46.96-24.56L30.92-24.56L30.92-14.36L43.60-14.36L43.60-12.48L30.92-12.48L30.92-1.84Z M77.96-26.40L77.96 0L76.04 0L76.04-19.68L76.28-24.48L76.24-24.48L66.60 0L64.76 0L55.12-24.48L55.08-24.48L55.32-19.68L55.32 0L53.40 0L53.40-26.40L56.40-26.40L64.36-6.40L65.68-2.36L65.72-2.36L67-6.36L74.96-26.40L77.96-26.40Z M104.24 0L100.92-8.28L88.28-8.28L85 0L82.88 0L93.44-26.40L95.80-26.40L106.36 0L104.24 0ZM89.04-10.12L100.20-10.12L95.60-21.64L94.64-24.44L94.60-24.44L93.64-21.72L89.04-10.12Z M131.56-26.40L131.56 0L129.08 0L115.08-20.72L113.12-24.24L113.08-24.24L113.20-20.92L113.20 0L111.28 0L111.28-26.40L113.80-26.40L127.76-5.72L129.76-2.16L129.68-5.48L129.68-26.40L131.56-26.40Z M157.88-26.40L157.88-24.56L148.24-24.56L148.24 0L146.24 0L146.24-24.56L136.60-24.56L136.60-26.40L157.88-26.40Z M164.92-26.40L164.92 0L162.92 0L162.92-26.40L164.92-26.40Z M194.12-6.68Q193-3.32 190.22-1.46Q187.44 0.40 183.56 0.40L183.56 0.40Q179.96 0.40 177.24-1.26Q174.52-2.92 173.04-6Q171.56-9.08 171.56-13.20L171.56-13.20Q171.56-17.32 173.04-20.40Q174.52-23.48 177.24-25.14Q179.96-26.80 183.52-26.80L183.52-26.80Q191.44-26.80 193.76-20.28L193.76-20.28L191.80-19.36Q190.88-22.16 188.86-23.56Q186.84-24.96 183.64-24.96L183.64-24.96Q180.68-24.96 178.42-23.54Q176.16-22.12 174.92-19.46Q173.68-16.80 173.68-13.20L173.68-13.20Q173.68-9.60 174.90-6.94Q176.12-4.28 178.34-2.86Q180.56-1.44 183.56-1.44L183.56-1.44Q186.76-1.44 189-3Q191.24-4.56 192.12-7.44L192.12-7.44L194.12-6.68Z M23.08 15.60L23.08 17.44L13.44 17.44L13.44 42L11.44 42L11.44 17.44L1.80 17.44L1.80 15.60L23.08 15.60Z M46.44 15.60L48.44 15.60L48.44 42L46.44 42L46.44 29.52L30.12 29.52L30.12 42L28.12 42L28.12 15.60L30.12 15.60L30.12 27.64L46.44 27.64L46.44 15.60Z M67.24 15.20Q70.96 15.20 73.70 16.86Q76.44 18.52 77.92 21.58Q79.40 24.64 79.40 28.80L79.40 28.80Q79.40 32.96 77.92 36.02Q76.44 39.08 73.70 40.74Q70.96 42.40 67.24 42.40L67.24 42.40Q63.52 42.40 60.78 40.74Q58.04 39.08 56.56 36.02Q55.08 32.96 55.08 28.80L55.08 28.80Q55.08 24.64 56.56 21.58Q58.04 18.52 60.78 16.86Q63.52 15.20 67.24 15.20L67.24 15.20ZM67.24 17.04Q64.16 17.04 61.90 18.46Q59.64 19.88 58.42 22.54Q57.20 25.20 57.20 28.80L57.20 28.80Q57.20 32.40 58.42 35.06Q59.64 37.72 61.90 39.14Q64.16 40.56 67.24 40.56L67.24 40.56Q70.32 40.56 72.60 39.14Q74.88 37.72 76.10 35.06Q77.32 32.40 77.32 28.80L77.32 28.80Q77.32 25.20 76.10 22.54Q74.88 19.88 72.60 18.46Q70.32 17.04 67.24 17.04L67.24 17.04Z M106.08 15.60L106.08 32.36Q106.08 37.24 103.44 39.82Q100.80 42.40 95.92 42.40L95.92 42.40Q91.04 42.40 88.38 39.82Q85.72 37.24 85.72 32.36L85.72 32.36L85.72 15.60L87.72 15.60L87.72 31.96Q87.72 36.20 89.80 38.38Q91.88 40.56 95.92 40.56L95.92 40.56Q99.92 40.56 102.00 38.38Q104.08 36.20 104.08 31.96L104.08 31.96L104.08 15.60L106.08 15.60Z M124.24 29.08L135.08 29.08L135.08 42L133.48 42L133.40 37.40Q132.32 39.80 130.02 41.10Q127.72 42.40 124.32 42.40L124.32 42.40Q120.72 42.40 118.02 40.74Q115.32 39.08 113.86 36Q112.40 32.92 112.40 28.80L112.40 28.80Q112.40 24.68 113.90 21.60Q115.40 18.52 118.12 16.86Q120.84 15.20 124.44 15.20L124.44 15.20Q128.48 15.20 131.04 16.80Q133.60 18.40 134.88 21.68L134.88 21.68L133.04 22.64Q132.12 19.88 129.94 18.46Q127.76 17.04 124.44 17.04L124.44 17.04Q121.48 17.04 119.24 18.46Q117 19.88 115.76 22.54Q114.52 25.20 114.52 28.80L114.52 28.80Q114.52 34.28 117.14 37.42Q119.76 40.56 124.40 40.56L124.40 40.56Q127.28 40.56 129.28 39.42Q131.28 38.28 132.24 36.42Q133.20 34.56 133.20 32.44L133.20 32.44L133.20 30.96L124.24 30.96L124.24 29.08Z M160.48 15.60L162.48 15.60L162.48 42L160.48 42L160.48 29.52L144.16 29.52L144.16 42L142.16 42L142.16 15.60L144.16 15.60L144.16 27.64L160.48 27.64L160.48 15.60Z M188.80 15.60L188.80 17.44L179.16 17.44L179.16 42L177.16 42L177.16 17.44L167.52 17.44L167.52 15.60L188.80 15.60Z M22.08 57.60L22.08 84L19.60 84L5.60 63.28L3.64 59.76L3.60 59.76L3.72 63.08L3.72 84L1.80 84L1.80 57.60L4.32 57.60L18.28 78.28L20.28 81.84L20.20 78.52L20.20 57.60L22.08 57.60Z M32.40 82.16L49.08 82.16L49.08 84L30.40 84L30.40 57.60L48.44 57.60L48.44 59.44L32.40 59.44L32.40 69.64L45.08 69.64L45.08 71.52L32.40 71.52L32.40 82.16Z M72.88 57.60L72.88 59.44L63.24 59.44L63.24 84L61.24 84L61.24 59.44L51.60 59.44L51.60 57.60L72.88 57.60Z M91 65.48L85.68 84L83.20 84L74.96 57.60L77.12 57.60L84.44 82.36L91.36 57.60L93.68 57.60L100.60 82.40L108 57.60L110.04 57.60L101.80 84L99.32 84L94 65.48L92.52 59.76L92.48 59.76L91 65.48Z M125.52 57.20Q129.24 57.20 131.98 58.86Q134.72 60.52 136.20 63.58Q137.68 66.64 137.68 70.80L137.68 70.80Q137.68 74.96 136.20 78.02Q134.72 81.08 131.98 82.74Q129.24 84.40 125.52 84.40L125.52 84.40Q121.80 84.40 119.06 82.74Q116.32 81.08 114.84 78.02Q113.36 74.96 113.36 70.80L113.36 70.80Q113.36 66.64 114.84 63.58Q116.32 60.52 119.06 58.86Q121.80 57.20 125.52 57.20L125.52 57.20ZM125.52 59.04Q122.44 59.04 120.18 60.46Q117.92 61.88 116.70 64.54Q115.48 67.20 115.48 70.80L115.48 70.80Q115.48 74.40 116.70 77.06Q117.92 79.72 120.18 81.14Q122.44 82.56 125.52 82.56L125.52 82.56Q128.60 82.56 130.88 81.14Q133.16 79.72 134.38 77.06Q135.60 74.40 135.60 70.80L135.60 70.80Q135.60 67.20 134.38 64.54Q133.16 61.88 130.88 60.46Q128.60 59.04 125.52 59.04L125.52 59.04Z M164.16 84L161.80 84L154.24 72.56L154.12 72.56L146.32 72.56L146.32 84L144.32 84L144.32 57.60L154.12 57.60Q158.08 57.60 160.42 59.60Q162.76 61.60 162.76 65.08L162.76 65.08Q162.76 67.96 161.08 69.86Q159.40 71.76 156.48 72.32L156.48 72.32L164.16 84ZM146.32 59.44L146.32 70.68L154.08 70.68Q157.28 70.68 158.98 69.24Q160.68 67.80 160.68 65.08L160.68 65.08Q160.68 62.36 158.98 60.90Q157.28 59.44 154.08 59.44L154.08 59.44L146.32 59.44Z M186.88 84L177.20 69.76L171.92 75.12L171.92 84L169.92 84L169.92 57.60L171.92 57.60L171.92 72.40L186.40 57.60L189.04 57.60L178.60 68.28L189.32 84L186.88 84Z"/></g>
</svg>
</g></svg></svg>